<svg width="16" height="16" viewBox="0 0 24 24" fill="none" xmlns="http://www.w3.org/2000/svg">
<path d="M9.2943 1C7.39687 1.50842 5.66669 2.50734 4.27767 3.89635C2.88865 5.28537 1.88973 7.01555 1.38131 8.91299C0.872896 10.8104 0.872896 12.8083 1.38131 14.7057C1.88973 16.6031 2.88865 18.3333 4.27767 19.7223C5.66669 21.1114 7.39686 22.1103 9.2943 22.6187C11.1917 23.1271 13.1896 23.1271 15.087 22.6187C16.9844 22.1103 18.7146 21.1114 20.1036 19.7223C21.4927 18.3333 22.4916 16.6031 23 14.7057C23 14.7057 17.2773 16.896 12.1907 11.8093C7.104 6.72268 9.2943 1 9.2943 1Z" stroke="white" stroke-width="2" stroke-linecap="round" stroke-linejoin="round"/>
</svg>
